<?xml version="1.0" encoding="UTF-8"?>
<!DOCTYPE svg PUBLIC "-//W3C//DTD SVG 1.1//EN" "http://www.w3.org/Graphics/SVG/1.1/DTD/svg11.dtd">
<!-- Creator: CorelDRAW X8 -->
<svg xmlns="http://www.w3.org/2000/svg" xml:space="preserve" width="210mm" height="297mm" version="1.1" style="shape-rendering:geometricPrecision; text-rendering:geometricPrecision; image-rendering:optimizeQuality; fill-rule:evenodd; clip-rule:evenodd"
viewBox="0 0 21000 29700"
 xmlns:xlink="http://www.w3.org/1999/xlink">
 <defs>
  <style type="text/css">
   <![CDATA[
    .fil0 {fill:#23869D;fill-rule:nonzero}
    .fil2 {fill:url(#id0)}
    .fil1 {fill:url(#id1)}
    .fil3 {fill:url(#id2)}
   ]]>
  </style>
  <linearGradient id="id0" gradientUnits="userSpaceOnUse" x1="7700.44" y1="9465.9" x2="10393.9" y2="9465.9">
   <stop offset="0" style="stop-opacity:1; stop-color:#80FACD"/>
   <stop offset="0" style="stop-opacity:1; stop-color:#80FACD"/>
   <stop offset="1" style="stop-opacity:1; stop-color:#41ECF7"/>
  </linearGradient>
  <linearGradient id="id1" gradientUnits="userSpaceOnUse" xlink:href="#id0" x1="11979.7" y1="11872.1" x2="12335.9" y2="11872.1">
  </linearGradient>
  <linearGradient id="id2" gradientUnits="userSpaceOnUse" xlink:href="#id0" x1="8686.59" y1="9874.73" x2="11528.6" y2="9874.73">
  </linearGradient>
 </defs>
 <g id="Camada_x0020_1">
  <metadata id="CorelCorpID_0Corel-Layer"/>
  <path class="fil0" d="M10319 12539c-15,-70 -41,-130 -79,-181 -38,-51 -90,-91 -154,-119 -65,-28 -148,-42 -248,-42 -56,0 -117,11 -183,32 -54,17 -103,39 -148,67 89,66 134,153 159,234 13,-5 27,-10 42,-15 34,-9 61,-14 80,-14 72,0 122,24 152,72 29,48 44,129 44,244l0 667 356 0 0 -710c0,-86 -7,-164 -21,-235z"/>
  <polygon class="fil1" points="12336,11628 11980,11686 11980,12116 "/>
  <path class="fil0" d="M13073 13309c-40,-64 -84,-128 -132,-191 -48,-64 -97,-126 -148,-186 -51,-60 -101,-112 -148,-155 95,-94 183,-185 264,-273 80,-88 163,-181 247,-278l-423 0c-23,27 -49,59 -80,95 -31,37 -65,75 -100,116 -35,40 -71,81 -108,122 -38,41 -74,81 -109,119l0 -961 -356 488 0 1279 356 0 0 -551c40,32 80,71 121,117 40,47 79,95 115,145 37,50 72,101 104,151 33,51 62,96 87,138l410 0c-27,-53 -61,-111 -100,-175z"/>
  <path class="fil0" d="M4151 12224c51,0 100,4 145,12 46,8 77,16 95,24l-31 134c-13,-7 -39,-14 -78,-21 -39,-7 -91,-11 -154,-11 -67,0 -121,5 -162,15 -41,9 -67,17 -80,24l0 1083 -155 0 0 -1179c39,-17 94,-35 165,-54 70,-18 155,-27 255,-27z"/>
  <path class="fil0" d="M5428 12767c-3,-130 -33,-230 -90,-302 -58,-71 -139,-107 -244,-107 -56,0 -106,11 -150,33 -44,22 -82,52 -115,90 -32,37 -58,81 -76,130 -18,50 -29,101 -32,156l707 0zm-877 98c0,-109 15,-203 46,-284 32,-80 72,-148 122,-202 51,-54 108,-94 173,-121 64,-26 131,-39 199,-39 152,0 272,49 363,148 90,99 135,251 135,457 0,13 -1,26 -2,38 0,13 -2,25 -3,36l-868 0c5,152 42,268 112,349 70,82 182,122 335,122 84,0 151,-8 201,-24 49,-16 85,-29 107,-40l29 134c-22,12 -64,27 -125,45 -62,18 -134,26 -217,26 -108,0 -201,-16 -277,-48 -77,-31 -140,-76 -189,-133 -50,-58 -85,-126 -108,-205 -22,-79 -33,-165 -33,-259z"/>
  <path class="fil0" d="M6763 12472c-15,-11 -32,-23 -54,-35 -22,-13 -47,-25 -75,-36 -29,-11 -60,-21 -94,-28 -33,-7 -68,-11 -105,-11 -76,0 -141,14 -192,41 -52,27 -94,63 -126,109 -32,45 -55,99 -69,160 -15,62 -22,126 -22,195 0,163 41,287 122,374 82,87 189,131 323,131 77,0 138,-4 185,-11 47,-7 83,-15 107,-23l0 -866zm155 974c-46,16 -105,31 -177,45 -71,14 -162,22 -272,22 -91,0 -174,-15 -248,-45 -74,-29 -138,-72 -191,-127 -54,-56 -95,-124 -124,-204 -30,-79 -45,-170 -45,-270 0,-94 13,-181 37,-259 25,-79 61,-148 109,-205 48,-57 107,-102 176,-134 69,-32 149,-48 238,-48 81,0 152,12 211,35 60,23 104,45 131,66l0 -665 155 -29 0 1818z"/>
  <path class="fil0" d="M8133 12767c-3,-130 -33,-230 -91,-302 -57,-71 -139,-107 -244,-107 -56,0 -105,11 -149,33 -44,22 -82,52 -115,90 -33,37 -58,81 -77,130 -18,50 -29,101 -32,156l708 0zm-878 98c0,-109 16,-203 47,-284 31,-80 72,-148 122,-202 50,-54 108,-94 172,-121 65,-26 131,-39 200,-39 151,0 272,49 362,148 90,99 135,251 135,457 0,13 0,26 -1,38 -1,13 -2,25 -4,36l-868 0c5,152 43,268 113,349 70,82 182,122 335,122 84,0 151,-8 200,-24 50,-16 86,-29 108,-40l29 134c-23,12 -64,27 -126,45 -61,18 -133,26 -216,26 -109,0 -201,-16 -278,-48 -76,-31 -139,-76 -189,-133 -49,-58 -85,-126 -107,-205 -22,-79 -34,-165 -34,-259z"/>
  <path class="fil0" d="M11144 13235c35,0 68,0 100,-2 32,-2 58,-4 77,-7l0 -271c-15,-3 -36,-6 -65,-9 -29,-3 -55,-5 -79,-5 -33,0 -65,2 -94,6 -30,4 -56,12 -78,23 -22,11 -40,26 -53,45 -12,19 -19,43 -19,72 0,56 19,94 56,116 38,22 89,32 155,32zm-29 -1042c105,0 193,12 263,36 70,23 126,58 169,102 42,45 72,99 89,163 18,64 27,135 27,213l0 741c-51,11 -122,24 -213,40 -91,15 -201,22 -330,22 -82,0 -155,-7 -221,-21 -67,-15 -124,-38 -171,-71 -48,-32 -85,-75 -110,-128 -26,-52 -39,-117 -39,-193 0,-74 15,-136 45,-187 29,-51 69,-92 118,-122 49,-30 106,-52 170,-66 64,-13 130,-20 198,-20 46,0 88,2 123,6 36,4 65,9 88,16l0 -34c0,-60 -19,-109 -55,-146 -37,-36 -101,-55 -192,-55 -60,0 -120,5 -179,13 -59,9 -110,22 -153,37l-45 -287c20,-6 46,-13 77,-20 31,-7 65,-13 102,-19 37,-6 75,-10 116,-14 41,-4 82,-6 123,-6z"/>
  <path class="fil0" d="M14003 12652c-12,-28 -27,-54 -45,-78 -18,-24 -39,-43 -64,-58 -25,-15 -53,-24 -84,-28 -31,-4 -66,1 -105,15 -38,14 -68,32 -90,55 -22,22 -39,47 -49,75 -10,27 -15,57 -15,88 0,31 3,62 9,92l443 -161zm-740 414c-38,-105 -55,-202 -52,-293 4,-90 22,-171 56,-243 33,-71 79,-133 137,-185 59,-51 124,-90 196,-116 167,-62 319,-58 453,9 135,67 239,200 311,399 7,20 14,41 21,65 7,24 13,45 18,64l-759 276c32,66 84,109 156,129 72,20 155,12 251,-23 62,-22 120,-50 175,-82 55,-33 98,-65 130,-95l144 256c-15,15 -36,33 -62,53 -27,20 -57,40 -92,60 -34,20 -71,40 -112,60 -40,19 -81,37 -123,52 -106,39 -205,57 -295,54 -90,-3 -171,-22 -242,-58 -72,-36 -134,-87 -186,-153 -51,-66 -93,-142 -125,-229z"/>
  <path class="fil0" d="M15439 12542c-32,-8 -70,-17 -113,-25 -43,-9 -89,-13 -138,-13 -23,0 -49,2 -81,6 -31,4 -54,8 -70,13l0 961 -356 0 0 -1191c63,-22 139,-43 226,-63 86,-20 183,-30 290,-30 19,0 42,1 69,3 27,3 55,6 82,10 27,4 54,9 81,14 27,6 50,13 69,21l-59 294z"/>
  <path class="fil0" d="M9339 12232c-56,-23 -130,-35 -221,-35 -46,0 -93,2 -141,6 -48,4 -94,10 -140,17 -45,7 -88,15 -129,24 -41,9 -76,17 -106,25l0 1215 356 0 0 -971c22,-3 45,-6 69,-8 24,-3 47,-4 70,-4 71,0 122,24 152,72 29,48 44,129 44,244l0 667 356 0 0 -686c0,-47 -2,-90 -5,-131 -12,-121 -56,-343 -305,-435z"/>
  <path class="fil2" d="M9815 7660c-3,-2 -7,-4 -10,-6 -116,-65 -262,-68 -385,3 0,0 0,0 0,0 0,0 0,0 0,0l-665 384 -194 112 -499 288 -86 49c-44,27 -87,53 -130,81 -72,57 -123,140 -139,235 0,0 0,0 0,0 -4,23 -6,45 -7,68 0,1 0,1 0,1 0,0 0,0 0,0l0 739c0,9 0,18 0,27 0,0 0,1 0,1l0 302c0,0 0,1 0,1l0 688c0,1 0,1 0,1 0,0 0,0 0,0 0,33 4,64 12,95 0,0 0,1 1,2 0,1 0,2 0,3 1,1 1,2 1,3 1,1 1,2 1,3 1,2 1,4 2,6 0,0 0,0 0,0 1,4 2,8 3,11 1,1 1,1 1,2 0,1 1,2 1,3 0,1 1,3 1,4 1,1 1,2 1,2 1,2 1,3 1,4 1,0 1,1 1,2 1,1 2,3 2,5 0,0 0,0 0,0 1,2 2,3 2,5 0,0 1,1 1,1 1,4 3,7 5,11 0,0 0,0 0,0 24,54 61,102 107,139 0,0 0,0 0,0 0,0 0,1 1,1 -1,0 -1,-1 -1,-1 15,12 30,24 47,34 4,2 7,4 11,6l578 334 0 -220c0,-2 0,-4 0,-6 0,0 0,0 0,0 0,0 0,-1 0,-1l0 -688c0,-1 0,-1 0,-2l0 -301c0,0 0,-1 0,-1 0,-9 0,-18 0,-26l0 -518 0 -222c0,0 0,0 0,0 0,0 0,-1 0,-1 0,-23 2,-46 6,-68 0,0 0,0 0,0 17,-95 68,-178 140,-236 43,-27 86,-53 130,-80l86 -49 13 -8 486 -280 194 -112 664 -384c1,0 1,0 1,0 0,-1 0,-1 0,-1 7,-4 14,-7 21,-11l174 -100 -579 -334z"/>
  <path class="fil3" d="M11529 9944l0 -302c0,0 0,-1 0,-1 0,-9 0,-18 0,-27l0 -739c0,0 0,0 0,0 0,0 0,0 0,-1 -1,-23 -3,-45 -7,-68 0,0 0,0 0,0 -16,-95 -67,-178 -139,-235 -9,-6 -18,-11 -26,-16 -34,-22 -69,-43 -104,-65l-86 -49c-5,3 -183,102 -417,232 -454,253 -1117,623 -1135,634 -12,-7 -262,-147 -559,-312l-10 6 -85 50c-44,26 -88,53 -130,81 -72,58 -122,141 -139,235 0,1 0,1 0,1 -4,22 -6,45 -6,68 0,0 0,0 0,0 0,1 0,1 0,1l1 226c62,35 134,76 209,118 0,0 0,0 0,0 201,114 428,242 572,324 89,50 146,83 146,83 0,0 0,-1 1,-1 0,0 0,1 0,1 0,0 129,-74 301,-171 0,0 -1,0 -1,0 327,-185 807,-456 835,-471 0,0 0,0 0,0l0 1763 578 -334c4,-2 7,-4 11,-6 17,-10 32,-22 47,-34 0,0 0,1 -1,1 1,0 1,-1 1,-1 0,0 0,0 0,0 46,-37 83,-85 107,-139 0,0 0,0 0,0 2,-4 4,-7 5,-11 0,0 0,-1 1,-1 0,-2 1,-3 2,-5 0,0 0,0 0,0 0,-2 1,-4 2,-5 0,-1 0,-2 0,-2 1,-1 1,-2 2,-4 0,0 0,-1 1,-2 0,-1 1,-3 1,-4 0,-1 1,-2 1,-3 0,-1 0,-1 1,-2 1,-3 2,-7 3,-11 0,0 0,0 0,0 1,-2 1,-4 2,-6 0,-1 0,-2 1,-3 0,-1 0,-2 1,-3 0,-1 0,-2 0,-3 1,-1 1,-2 1,-2 7,-31 12,-62 12,-95 0,0 0,0 0,0 0,0 0,0 0,-1l0 -688c0,0 0,-1 0,-1zm-1915 244l0 0zm1 0l0 0z"/>
 </g>
</svg>
